<svg xmlns="http://www.w3.org/2000/svg" xmlns:xlink="http://www.w3.org/1999/xlink" viewBox="0 0 75 75"><defs><linearGradient id="a"><stop offset="0" stop-color="#ffc700"/><stop offset="1" stop-color="#ff9700"/></linearGradient><linearGradient xlink:href="#a" id="b" x1="36.6" y1="17.2" x2="36.1" y2="63.9" gradientUnits="userSpaceOnUse" gradientTransform="matrix(.9947 0 0 .99648 .403 -.005)"/></defs><path fill="url(#b)" d="M0 0h75v75H0z"/><g fill="#fefefe" stroke-width="13.1"><path d="M63.3 23.6C60.7 20.4 57 18 52.7 16c-4.5-2-9.4-2.8-14.7-2.8-5.3 0-10.2 1-14.7 2.8-4.4 2-8 4.4-10.6 7.6-2.6 3.2-4 6.7-4 10.5 0 3.3 1 6.4 3 9.2 2 3 4.7 5.3 8 7.2 0 1-.4 1.7-.7 2.5l-1 1.8-1 1.7-1 1.2-1 1.3-1 1-.4.4c0 .2-.2.3-.2.3l-.2.3s-.2.2 0 .3c0 0-.2 0-.2.3v.4c0 .4.3.7.5 1 .3.2.6.3 1 .3l3.8-.7c5.7-1.5 10.7-4 15-8l4.7.3c5.3 0 10.2-1 14.7-3 4.4-1.7 8-4.2 10.6-7.5 2.6-3.2 4-6.7 4-10.4s-1.4-7.2-4-10.4zm-3.7 18.8c-2.2 2.5-5.3 4.6-9.2 6C46.6 50 42.4 51 38 51c-1.3 0-2.7 0-4.2-.3l-2-.2-1.3 1.2c-2.7 2.4-5.7 4.2-9 5.6 1-1.6 1.8-3.5 2.3-5.5l1-3-3-1.8C19 45 17 43.2 15.4 41c-1.6-2.2-2.3-4.5-2.3-7 0-3 1-5.7 3.4-8.2 2.2-2.6 5.3-4.6 9.2-6.2 3.8-1.5 8-2.2 12.4-2.2s8.6.7 12.4 2.2c4 1.6 7 3.6 9.2 6.2C62 28.3 63 31 63 34c0 3-1 5.8-3.4 8.4z"/></g><path d="M22.6 55.7c1.4-3.4 2.4-7.5 2-7.7-.4 0-2-1-4-2.3-6.7-4.6-9-10.4-6.2-16.4C17.8 22 28.6 17.3 40 18 53 18.5 63 25.6 63 34.4c0 2.7-2.4 7-5 9.4-5.2 4.3-14.4 7-21.8 6.4l-4-.3-3.4 2.6c-1.8 1.3-4 2.8-5 3.3-1.4.6-1.4.6-1-.3z" fill="#fff" stroke="#fff" stroke-width="7.1" stroke-linecap="round" stroke-linejoin="round" paint-order="markers fill stroke"/></svg>