<svg xmlns="http://www.w3.org/2000/svg" width="475.092" height="475.092" viewBox="0 0 475.092 475.092"><path fill="red" d="M442.822 209.562c1.715-6.283 2.57-12.847 2.57-19.702 0-14.655-3.62-28.36-10.852-41.112.567-3.995.855-8.088.855-12.275 0-19.223-5.716-36.162-17.132-50.82v-1.426c.19-26.075-7.946-46.632-24.414-61.67C377.386 7.522 355.83 0 329.185 0H297.21c-19.986 0-39.02 2.093-57.103 6.28-18.086 4.19-39.304 10.468-63.666 18.842-22.08 7.616-35.21 11.422-39.398 11.422h-82.22c-10.09 0-18.703 3.567-25.84 10.704C21.844 54.388 18.275 63 18.275 73.085v182.728c0 10.09 3.566 18.698 10.705 25.837 7.143 7.14 15.753 10.705 25.84 10.705h78.23c6.848 4.572 19.888 19.324 39.112 44.255 11.23 14.66 21.416 26.74 30.55 36.265 3.613 3.997 6.565 10.09 8.85 18.27 2.283 8.187 3.948 16.23 4.997 24.127 1.046 7.898 3.474 16.516 7.28 25.837 3.806 9.328 8.944 17.138 15.415 23.42 7.423 7.044 15.985 10.562 25.697 10.562 15.988 0 30.36-3.087 43.112-9.274 12.754-6.184 22.463-15.845 29.126-28.98 6.663-12.944 9.996-30.647 9.996-53.104 0-17.702-4.568-35.974-13.702-54.82h50.244c19.8 0 36.925-7.23 51.394-21.7 14.47-14.46 21.693-31.496 21.693-51.102-.006-16.947-4.665-32.46-13.993-46.55zM85.942 104.22c-3.616 3.614-7.898 5.423-12.847 5.423-4.95 0-9.233-1.805-12.85-5.424-3.615-3.622-5.424-7.9-5.424-12.852 0-4.948 1.81-9.23 5.425-12.847 3.62-3.616 7.9-5.423 12.85-5.423 4.95 0 9.23 1.807 12.847 5.424 3.617 3.617 5.426 7.9 5.426 12.848 0 4.95-1.808 9.23-5.426 12.85zm323.193 177.157c-7.42 7.33-15.886 10.992-25.413 10.992H283.227c0 11.04 4.564 26.216 13.698 45.534 9.138 19.32 13.71 34.598 13.71 45.83 0 18.646-3.046 32.448-9.134 41.394-6.09 8.95-18.273 13.422-36.545 13.422-4.95-4.948-8.572-13.045-10.854-24.276-2.275-11.225-5.184-23.168-8.705-35.83-3.52-12.655-9.18-23.08-16.984-31.266-4.183-4.373-11.515-13.038-21.98-25.98-.762-.95-2.953-3.806-6.568-8.562-3.614-4.757-6.613-8.658-8.992-11.703-2.38-3.046-5.664-7.09-9.85-12.136-4.19-5.044-7.996-9.232-11.423-12.565-3.427-3.327-7.09-6.708-10.992-10.137-3.9-3.426-7.71-5.996-11.42-7.707-3.712-1.71-7.09-2.566-10.136-2.566h-9.137V73.092h9.136c2.473 0 5.47-.282 8.992-.854 3.518-.57 6.658-1.192 9.42-1.858 2.76-.666 6.376-1.713 10.848-3.14 4.476-1.425 7.804-2.522 9.994-3.283 2.19-.763 5.568-1.95 10.138-3.57 4.57-1.616 7.33-2.614 8.28-2.997 40.16-13.894 72.708-20.84 97.648-20.84h36.542c16.563 0 29.506 3.9 38.828 11.705 9.328 7.804 13.99 19.795 13.99 35.975 0 4.95-.48 10.28-1.424 15.987 5.708 3.046 10.23 8.042 13.56 14.987 3.332 6.945 4.995 13.944 4.995 20.985 0 7.038-1.71 13.61-5.14 19.7 10.09 9.517 15.126 20.84 15.126 33.974 0 4.76-.948 10.04-2.847 15.846-1.9 5.808-4.286 10.327-7.14 13.562 6.09.192 11.184 4.665 15.276 13.422 4.093 8.754 6.14 16.468 6.14 23.127 0 9.705-3.715 18.223-11.14 25.557z"/></svg>
