<svg xmlns="http://www.w3.org/2000/svg" width="475.099" height="475.099" viewBox="0 0 475.099 475.099"><path d="M442.83 265.532c9.327-14.09 13.985-29.598 13.985-46.538 0-19.607-7.225-36.637-21.687-51.117-14.47-14.465-31.6-21.696-51.394-21.696h-50.25c9.133-18.84 13.708-37.116 13.708-54.815 0-22.27-3.34-39.97-9.996-53.105-6.663-13.138-16.372-22.795-29.126-28.984C295.313 3.09 280.947 0 264.96 0c-9.713 0-18.275 3.52-25.698 10.566-8.183 7.993-14.084 18.274-17.7 30.837-3.616 12.56-6.52 24.6-8.707 36.116-2.187 11.514-5.57 19.65-10.135 24.41-9.33 10.087-19.51 22.272-30.55 36.546-19.225 24.932-32.265 39.685-39.114 44.255H54.828c-10.088 0-18.702 3.575-25.84 10.707-7.135 7.14-10.705 15.752-10.705 25.84v182.724c0 10.09 3.566 18.7 10.705 25.84 7.142 7.138 15.752 10.71 25.84 10.71h82.22c4.19 0 17.32 3.806 39.4 11.42 23.413 8.186 44.017 14.418 61.812 18.702 17.797 4.284 35.832 6.427 54.106 6.427h36.83c26.836 0 48.438-7.667 64.81-22.99 16.364-15.325 24.457-36.214 24.27-62.67 11.42-14.658 17.128-31.598 17.128-50.82 0-4.185-.28-8.277-.855-12.278 7.23-12.748 10.854-26.453 10.854-41.11-.003-6.853-.858-13.423-2.573-19.7zM85.95 396.58c-3.617 3.614-7.9 5.428-12.848 5.428-4.95 0-9.233-1.813-12.85-5.428-3.615-3.613-5.424-7.897-5.424-12.85 0-4.948 1.805-9.23 5.424-12.847 3.62-3.617 7.9-5.425 12.85-5.425 4.95 0 9.23 1.808 12.847 5.425 3.616 3.617 5.425 7.898 5.425 12.847 0 4.953-1.81 9.237-5.426 12.85zm328.195-154.16c-4.093 8.753-9.186 13.226-15.276 13.414 2.853 3.237 5.234 7.762 7.138 13.562 1.902 5.807 2.847 11.087 2.847 15.848 0 13.127-5.037 24.455-15.126 33.97 3.43 6.087 5.14 12.657 5.14 19.696 0 7.043-1.663 14.038-4.996 20.984-3.327 6.94-7.85 11.938-13.56 14.982.952 5.71 1.424 11.04 1.424 15.988 0 31.785-18.274 47.678-54.823 47.678H292.38c-24.94 0-57.484-6.943-97.65-20.84-.952-.38-3.708-1.384-8.28-3s-7.947-2.805-10.137-3.564c-2.19-.767-5.518-1.86-9.994-3.285-4.476-1.43-8.088-2.48-10.85-3.142-2.758-.663-5.9-1.282-9.42-1.854-3.52-.57-6.518-.855-8.992-.855h-9.136V219.286h9.136c3.045 0 6.423-.86 10.135-2.568 3.71-1.714 7.52-4.283 11.42-7.71 3.904-3.427 7.565-6.805 10.993-10.138 3.427-3.33 7.233-7.518 11.422-12.56 4.187-5.046 7.47-9.09 9.85-12.135s5.376-6.95 8.993-11.707c3.616-4.757 5.807-7.613 6.568-8.566 10.467-12.94 17.795-21.6 21.982-25.98 7.804-8.183 13.466-18.604 16.987-31.262 3.525-12.66 6.427-24.604 8.703-35.832 2.282-11.23 5.903-19.32 10.858-24.27 18.268 0 30.453 4.47 36.542 13.418 6.088 8.945 9.134 22.746 9.134 41.4 0 11.228-4.572 26.502-13.71 45.82-9.134 19.32-13.698 34.5-13.698 45.54H383.73c9.528 0 17.994 3.66 25.414 10.993 7.426 7.326 11.143 15.842 11.143 25.552-.003 6.66-2.05 14.37-6.142 23.137z"/></svg>
